<svg width="423" height="44" viewBox="0 0 423 44" fill="none" xmlns="http://www.w3.org/2000/svg">
<g clip-path="url(#clip0_1_13)">
<path d="M24.0632 23.4865C22.804 22.5422 21.4268 21.7666 19.9666 21.1794C18.469 20.5726 16.9821 20.0164 15.506 19.5108C14.0998 19.0356 12.7306 18.4574 11.4094 17.7809C10.2406 17.2038 9.21433 16.3745 8.40469 15.3529C7.61752 14.2607 7.22189 12.9348 7.2818 11.5899C7.24024 10.6837 7.41704 9.78084 7.79729 8.95729C8.17755 8.13375 8.75013 7.41363 9.46682 6.8576C10.9235 5.72575 12.8657 5.15945 15.2933 5.15867C17.1426 5.11989 18.9741 5.52583 20.6338 6.34231C22.279 7.221 23.7253 8.42964 24.8823 9.89267L27.9787 6.79625C26.5457 5.00348 24.7316 3.55221 22.668 2.54774C20.4058 1.46575 17.9227 0.925685 15.4154 0.97033C13.1722 0.933072 10.9471 1.37817 8.89077 2.2755C7.062 3.06903 5.49468 4.36315 4.36942 6.00871C3.24527 7.73977 2.6747 9.77201 2.73358 11.8352C2.66418 13.6741 3.06069 15.5007 3.88627 17.1453C4.61304 18.4943 5.64126 19.6575 6.89095 20.5443C8.16337 21.4352 9.5389 22.1689 10.9876 22.7293C12.4836 23.3159 13.9704 23.8721 15.4481 24.3979C16.8554 24.8943 18.2246 25.4928 19.5448 26.1886C20.7401 26.8062 21.7702 27.701 22.5489 28.7983C23.3387 30.0145 23.7313 31.4459 23.6723 32.8949C23.7107 33.8724 23.5063 34.8441 23.0773 35.7233C22.6482 36.6024 22.008 37.3615 21.2139 37.9327C19.5753 39.1463 17.4209 39.7532 14.7506 39.7532C12.4307 39.8131 10.1304 39.3137 8.04422 38.2973C6.0637 37.2384 4.36706 35.7185 3.09756 33.8659L0.00114441 36.901C1.65901 39.1857 3.85685 41.0244 6.39843 42.2528C8.94001 43.4813 11.7462 44.0612 14.5665 43.9409C18.773 43.9409 22.101 42.9395 24.5504 40.9368C26.9999 38.9341 28.2239 36.1323 28.2223 32.5315C28.2937 30.6341 27.8977 28.7482 27.069 27.0398C26.3396 25.6494 25.3134 24.4364 24.0632 23.4865Z" fill="#EFEDE7"/>
<path d="M35.9283 5.64133H50.6766V43.3305H55.167V5.64133H69.8545V1.57568H35.9283V5.64133Z" fill="#EFEDE7"/>
<path d="M104.387 28.1604C104.434 30.275 103.932 32.3656 102.931 34.2287C102.014 35.914 100.636 37.3031 98.9578 38.2336C97.1981 39.185 95.2226 39.666 93.2225 39.6299C91.2131 39.6636 89.2286 39.1829 87.4573 38.2336C85.7607 37.3065 84.3613 35.918 83.4209 34.2287C82.3951 32.3515 81.8822 30.237 81.934 28.0984V1.57796H77.443V28.342C77.402 31.139 78.1148 33.8955 79.5065 36.322C80.8443 38.6523 82.783 40.5808 85.1204 41.9061C87.6016 43.2405 90.3749 43.9389 93.1921 43.9389C96.0093 43.9389 98.7826 43.2405 101.264 41.9061C103.591 40.591 105.519 38.6725 106.847 36.353C108.222 33.9316 108.924 31.1864 108.88 28.4022V1.57796H104.389V28.1604H104.387Z" fill="#EFEDE7"/>
<path d="M150.482 7.49449C148.548 5.60599 146.258 4.12072 143.745 3.12504C141.069 2.0735 138.215 1.54823 135.339 1.57802H120.166V43.3322H135.46C138.319 43.3588 141.154 42.8228 143.806 41.7548C146.31 40.7453 148.589 39.2498 150.512 37.3544C152.422 35.4605 153.928 33.2 154.942 30.7088C157.046 25.3762 157.046 19.4435 154.942 14.1109C153.919 11.626 152.402 9.37508 150.482 7.49508V7.49449ZM149.753 31.1038C148.395 33.5946 146.366 35.6549 143.896 37.0512C141.245 38.5238 138.25 39.2671 135.217 39.2053H124.658V5.70383H135.218C138.227 5.64727 141.198 6.37966 143.837 7.82809C146.312 9.21311 148.351 11.2628 149.723 13.7457C151.169 16.3949 151.901 19.3747 151.847 22.3923C151.907 25.4267 151.186 28.4255 149.754 31.1014L149.753 31.1038Z" fill="#EFEDE7"/>
<path d="M170.721 1.57796H166.23V43.3322H170.721V1.57796Z" fill="#EFEDE7"/>
<path d="M216.18 7.16028C213.217 4.19475 209.439 2.17827 205.326 1.36776C201.213 0.557245 196.953 0.98939 193.086 2.60914C190.601 3.6714 188.352 5.21862 186.472 7.16028C184.579 9.11993 183.084 11.4285 182.071 13.9578C179.967 19.3745 179.967 25.3826 182.071 30.7993C183.086 33.3528 184.591 35.6827 186.502 37.6576C188.402 39.6204 190.671 41.1889 193.178 42.273C195.784 43.3966 198.595 43.9649 201.432 43.9415C204.25 43.9687 207.043 43.4001 209.626 42.273C214.648 40.0655 218.595 35.9647 220.609 30.8624C222.715 25.4353 222.715 19.417 220.609 13.9899C219.598 11.444 218.093 9.12363 216.18 7.16262L216.18 7.16028ZM215.451 31.2539C214.103 33.77 212.115 35.885 209.686 37.3842C207.162 38.9076 204.258 39.6859 201.31 39.6294C199.101 39.6496 196.911 39.2169 194.876 38.3581C192.923 37.529 191.165 36.2985 189.718 34.7464C188.239 33.1541 187.084 31.2887 186.319 29.2546C185.493 27.0633 185.082 24.7378 185.105 22.3964C185.046 19.3232 185.766 16.2853 187.198 13.5658C188.554 11.0145 190.59 8.88926 193.081 7.42665C195.572 5.96404 198.421 5.2214 201.309 5.2814C203.538 5.25782 205.748 5.69148 207.803 6.5556C209.751 7.38127 211.507 8.60031 212.961 10.1363C214.439 11.7074 215.594 13.5535 216.36 15.5697C217.187 17.7501 217.599 20.0661 217.575 22.3981C217.631 25.484 216.899 28.5331 215.45 31.2579L215.451 31.2539Z" fill="#EFEDE7"/>
<path d="M255.111 21.8781C253.913 20.9256 252.597 20.1303 251.197 19.5114C249.78 18.8843 248.344 18.328 246.888 17.8423C245.537 17.3978 244.211 16.8814 242.916 16.2952C241.854 15.8371 240.879 15.2006 240.032 14.4134C239.665 14.0445 239.377 13.603 239.189 13.1171C239.001 12.6312 238.916 12.1115 238.94 11.591C238.92 10.9732 239.06 10.3608 239.346 9.81315C239.633 9.26553 240.057 8.80143 240.576 8.46599C241.926 7.64837 243.491 7.25684 245.067 7.34251C246.609 7.31737 248.136 7.64973 249.527 8.31351C250.99 9.07623 252.298 10.1056 253.383 11.3486L258.845 5.88663C257.274 4.06066 255.315 2.60908 253.11 1.63812C250.622 0.520979 247.918 -0.0373998 245.191 0.00226922C242.647 -0.0393012 240.124 0.456831 237.786 1.45817C235.708 2.34264 233.92 3.79381 232.627 5.64592C231.333 7.60445 230.676 9.91528 230.747 12.2617C230.676 14.1398 231.039 16.0089 231.808 17.7237C232.486 19.1031 233.473 20.3078 234.691 21.2442C235.905 22.1749 237.23 22.9496 238.636 23.5502C240.053 24.157 241.479 24.6929 242.915 25.158C244.258 25.5885 245.575 26.0956 246.86 26.677C247.95 27.1496 248.932 27.8419 249.743 28.7107C250.495 29.585 250.886 30.7132 250.835 31.8655C250.855 32.5652 250.692 33.2578 250.362 33.8752C250.032 34.4925 249.547 35.0133 248.955 35.3861C247.7 36.2363 246 36.661 243.856 36.6603C241.76 36.7284 239.681 36.2584 237.818 35.2949C236.105 34.3205 234.609 33.0087 233.418 31.439L227.955 36.901C229.756 39.1431 232.024 40.9656 234.601 42.2414C237.355 43.4783 240.352 44.0797 243.371 44.0011C248.266 44.0011 252.11 42.8582 254.902 40.5723C257.694 38.2864 259.09 35.1609 259.09 31.196C259.149 29.2666 258.776 27.3484 257.997 25.5821C257.331 24.1445 256.345 22.8782 255.114 21.8799L255.111 21.8781Z" fill="#EFEDE7"/>
<path d="M300.477 8.011V0.667241H264.974V8.011H278.568V43.3323H286.883V8.011H300.477Z" fill="#EFEDE7"/>
<path d="M325.949 8.82647L321.906 19.4524L330.944 43.3322H339.744L325.949 8.82647Z" fill="#E22E3A"/>
<path d="M315.893 0.667241L298.659 43.3323H307.399L323.64 0.667241H315.893Z" fill="#EFEDE7"/>
<path d="M369.482 35.1694C367.539 35.965 365.451 36.3476 363.352 36.2928C361.49 36.3168 359.642 35.966 357.919 35.2611C356.284 34.5878 354.81 33.5778 353.592 32.2967C352.374 31.0157 351.44 29.4924 350.85 27.8262C350.182 25.947 349.853 23.9641 349.879 21.9699C349.856 19.9954 350.185 18.0326 350.85 16.1732C351.456 14.4798 352.407 12.9302 353.641 11.622C354.843 10.3563 356.302 9.36277 357.92 8.70849C359.628 8.02818 361.452 7.6882 363.29 7.7077C365.326 7.6646 367.35 8.03632 369.238 8.80022C370.878 9.48709 372.348 10.5227 373.548 11.8353L379.191 6.19047C377.204 4.28705 374.892 2.75566 372.364 1.66912C369.485 0.497969 366.397 -0.0699261 363.29 0.000566259C360.388 -0.0288838 357.509 0.519413 354.821 1.61351C352.133 2.7076 349.69 4.32561 347.633 6.37332C345.642 8.36661 344.072 10.7401 343.017 13.3525C340.833 18.8898 340.833 25.05 343.017 30.5873C344.08 33.2117 345.659 35.5959 347.66 37.598C349.67 39.6054 352.051 41.2027 354.671 42.301C357.439 43.4529 360.412 44.0309 363.41 44C366.516 44.0547 369.601 43.4874 372.484 42.3314C375.084 41.2507 377.461 39.6971 379.494 37.7493L373.85 32.1045C372.618 33.4128 371.132 34.4557 369.482 35.1694Z" fill="#EFEDE7"/>
<path d="M422.041 0.667241H411.723L394.669 19.9602V0.667241H386.417V43.3323H394.671V32.4154L422.041 0.667241Z" fill="#EFEDE7"/>
<path d="M403.274 32.5813L412.209 43.3311H422.647L408.446 26.5813L403.274 32.5813Z" fill="#E22E3A"/>
</g>
<defs>
<clipPath id="clip0_1_13">
<rect width="422.647" height="44" fill="white"/>
</clipPath>
</defs>
</svg>
